<svg viewBox="0 0 48 48" id="a" xmlns="http://www.w3.org/2000/svg" fill="#06183c" stroke="#06183c"><g id="SVGRepo_bgCarrier" stroke-width="0"></g><g id="SVGRepo_tracerCarrier" stroke-linecap="round" stroke-linejoin="round"></g><g id="SVGRepo_iconCarrier"> <defs> <style>.p{fill:none;stroke:#06183c;stroke-linecap:round;stroke-linejoin:round;}</style> </defs> <g id="b"> <path id="c" class="p" d="M16.5169,14.3442l7.7047-4.801,10.2741,8.6883v12.5665l-5.9671,4.836v-11.8175l-12.0117-9.4722Z"></path> <path id="d" class="p" d="M26.0581,9.2578l5.8416-3.6121,10.4601,7.293-6.4328,4.9258"></path> <path id="e" class="p" d="M36.2041,28.6126l6.2959-5.1397"></path> <path id="f" class="p" d="M36.2041,25.9523l6.2959-5.1397"></path> <path id="g" class="p" d="M36.2041,23.292l6.2959-5.1397"></path> <path id="h" class="p" d="M36.2041,20.6317l6.2959-5.1397"></path> <path id="i" class="p" d="M35.3139,14.172l2.7236-2.077-1.865-1.2474-1.4987,1.1314"></path> <path id="j" class="p" d="M5.5,31.9538l13.5429,10.4006,7.4233-5.9106"></path> <path id="k" class="p" d="M5.5,29.2851l13.5429,10.4006,7.4233-5.9106"></path> <path id="l" class="p" d="M5.6039,26.6164l13.5429,10.4006,7.4233-5.9106"></path> <path id="m" class="p" d="M5.5892,23.9478l13.5429,10.4006,7.4233-5.9106"></path> <path id="n" class="p" d="M20.2345,23.7501c-.226,1.0274-1.6933,1.5535-3.2773,1.1753h0c-1.5841-.3783-2.685-1.5178-2.459-2.5451,.226-1.0274,1.6933-1.5535,3.2773-1.1753s2.685,1.5177,2.459,2.5451Z"></path> <path id="o" class="p" d="M15.0514,15.826l-9.2955,5.5946,13.3311,10.1174,7.6392-6.0147"></path> </g> </g></svg>